<?xml version="1.0" standalone="no"?>
<!DOCTYPE svg PUBLIC "-//W3C//DTD SVG 20010904//EN"
 "http://www.w3.org/TR/2001/REC-SVG-20010904/DTD/svg10.dtd">
<svg version="1.0" xmlns="http://www.w3.org/2000/svg"
 width="1024.000000pt" height="1024.000000pt" viewBox="0 0 1024.000000 1024.000000"
 preserveAspectRatio="xMidYMid meet">
<metadata>
Created by potrace 1.16, written by Peter Selinger 2001-2019
</metadata>
<g transform="translate(0.000000,1024.000000) scale(0.100000,-0.100000)"
fill="#000000" stroke="none">
<path d="M4858 10228 c-3 -8 -52 -14 -144 -20 -227 -13 -466 -47 -696 -98 -27
-5 -67 -14 -90 -19 -24 -5 -61 -15 -83 -21 -22 -7 -55 -14 -73 -17 -18 -3 -35
-9 -38 -14 -3 -5 -15 -9 -26 -9 -23 0 -81 -17 -110 -31 -10 -5 -25 -9 -33 -9
-8 0 -23 -4 -33 -9 -9 -5 -37 -15 -62 -22 -25 -7 -49 -16 -55 -21 -5 -4 -17
-8 -27 -8 -10 0 -26 -4 -36 -9 -23 -11 -59 -26 -102 -41 -33 -12 -47 -17 -137
-56 -211 -90 -562 -271 -670 -345 -23 -16 -44 -29 -48 -29 -3 0 -61 -37 -128
-82 -560 -378 -1037 -856 -1406 -1407 -45 -66 -81 -123 -81 -126 0 -3 -17 -32
-38 -63 -22 -31 -58 -93 -82 -137 -24 -44 -56 -102 -72 -128 -15 -26 -28 -50
-28 -53 0 -3 -27 -63 -61 -132 -33 -70 -64 -136 -68 -147 -5 -11 -19 -42 -31
-70 -12 -27 -27 -61 -32 -75 -6 -14 -14 -33 -19 -42 -5 -10 -9 -25 -9 -33 0
-8 -4 -23 -9 -33 -9 -19 -29 -66 -41 -97 -4 -11 -22 -67 -40 -125 -18 -58 -36
-114 -40 -125 -5 -11 -11 -31 -14 -45 -2 -14 -10 -43 -16 -65 -18 -62 -45
-175 -60 -250 -6 -27 -15 -70 -20 -95 -6 -25 -15 -74 -21 -110 -6 -36 -15 -90
-20 -120 -71 -420 -71 -1113 1 -1555 29 -178 32 -196 60 -320 5 -25 15 -66 21
-92 5 -27 13 -63 16 -81 3 -18 9 -35 14 -38 5 -3 9 -16 9 -29 0 -13 4 -34 9
-47 5 -13 14 -43 21 -68 7 -25 16 -53 21 -62 5 -10 9 -25 9 -33 0 -8 4 -23 9
-33 5 -9 18 -48 30 -87 12 -38 26 -79 30 -90 5 -11 13 -31 19 -45 5 -14 15
-41 22 -60 12 -33 17 -47 56 -137 90 -211 271 -562 345 -670 16 -23 29 -44 29
-48 0 -3 33 -53 73 -112 39 -58 77 -113 82 -121 6 -9 15 -23 22 -31 7 -9 33
-45 60 -81 26 -36 50 -67 54 -70 3 -3 23 -27 43 -55 106 -139 318 -372 462
-505 230 -214 263 -242 456 -388 46 -35 90 -68 99 -75 8 -7 22 -16 31 -22 8
-5 63 -43 121 -82 59 -40 109 -73 112 -73 4 0 25 -13 48 -29 75 -51 192 -115
397 -216 150 -75 195 -96 270 -128 19 -8 51 -21 70 -30 19 -8 51 -20 70 -27
45 -15 69 -25 100 -38 14 -6 70 -25 125 -43 55 -17 109 -35 120 -39 11 -4 40
-13 65 -20 25 -7 55 -16 68 -21 13 -5 34 -9 47 -9 13 0 26 -4 29 -9 3 -5 20
-11 38 -14 18 -3 54 -11 81 -16 26 -6 67 -15 92 -21 124 -28 142 -31 320 -60
442 -72 1116 -72 1555 -1 185 31 205 34 325 61 25 6 66 15 93 21 26 5 62 13
80 16 18 3 35 9 38 14 3 5 16 9 29 9 13 0 34 4 47 9 13 5 43 14 68 21 25 7 53
16 62 21 10 5 25 9 33 9 8 0 23 4 33 9 9 5 49 18 87 30 39 12 80 26 93 32 39
16 66 27 102 39 19 7 51 19 70 27 19 9 51 22 70 30 201 86 560 271 667 344 23
16 44 29 48 29 3 0 53 33 112 73 58 39 113 77 122 82 23 14 166 122 231 174
131 105 192 158 336 294 40 38 81 76 91 85 17 16 71 75 203 217 66 72 135 154
186 220 20 28 40 52 43 55 4 3 28 34 54 70 27 36 53 72 60 81 7 8 17 22 22 31
6 8 38 56 73 106 34 50 62 96 62 102 0 5 5 10 10 10 6 0 10 5 10 11 0 6 13 29
28 52 16 23 40 62 53 87 13 25 26 47 29 50 13 13 200 384 220 435 4 11 18 43
30 70 12 28 27 61 33 75 16 41 29 73 40 100 5 14 13 33 18 42 5 10 9 25 9 33
0 8 5 24 10 35 6 11 15 29 20 40 6 11 10 29 10 39 0 11 5 23 10 26 6 3 10 15
10 26 0 10 4 27 9 37 5 9 15 37 21 62 7 25 16 54 20 65 5 11 11 31 14 45 2 14
10 43 16 65 13 47 27 103 41 163 49 220 46 209 80 412 17 105 30 236 38 367 4
81 12 138 19 145 17 17 17 505 0 510 -8 3 -15 50 -20 144 -12 225 -45 458 -98
697 -5 26 -14 66 -19 90 -5 23 -15 60 -21 82 -6 22 -15 56 -20 75 -5 19 -14
53 -20 75 -6 22 -14 52 -17 68 -3 15 -9 30 -14 33 -5 3 -9 14 -9 25 0 10 -4
27 -9 37 -5 9 -18 49 -30 87 -12 39 -26 80 -32 93 -16 39 -27 66 -39 102 -12
33 -17 47 -56 138 -90 210 -271 561 -345 669 -16 23 -29 44 -29 48 0 11 -160
244 -244 355 -346 460 -759 851 -1243 1178 -67 45 -125 82 -128 82 -4 0 -25
13 -48 29 -75 51 -192 115 -397 216 -150 75 -192 95 -272 129 -91 39 -105 44
-138 56 -36 12 -63 23 -102 39 -13 6 -54 20 -93 32 -38 12 -78 25 -87 30 -10
5 -25 9 -33 9 -8 0 -23 4 -33 9 -29 14 -87 31 -110 31 -11 0 -23 4 -26 9 -3 5
-20 11 -38 14 -18 3 -51 10 -73 17 -22 6 -59 16 -82 21 -24 5 -64 14 -90 19
-239 53 -472 86 -697 98 -94 5 -141 12 -144 20 -5 17 -509 17 -514 0z m496
-2178 c15 -5 31 -21 38 -35 14 -31 3 -57 -87 -201 -35 -55 -82 -137 -104 -182
-23 -45 -81 -149 -129 -230 -49 -81 -130 -221 -181 -312 -52 -91 -116 -203
-144 -250 -59 -99 -113 -195 -170 -300 -22 -41 -62 -110 -89 -153 -26 -43 -48
-80 -48 -82 0 -9 -124 -212 -149 -245 -15 -19 -78 -125 -141 -235 -63 -110
-140 -244 -172 -298 -32 -53 -58 -99 -58 -101 0 -3 -23 -44 -51 -93 -128 -219
-189 -325 -189 -330 0 -3 -8 -17 -18 -31 -11 -15 -32 -52 -49 -82 -17 -30 -44
-79 -62 -108 -17 -29 -31 -55 -31 -58 0 -3 -8 -18 -18 -32 -11 -15 -33 -52
-49 -83 -17 -31 -64 -112 -105 -180 -41 -68 -112 -189 -158 -269 -45 -80 -95
-165 -110 -190 -15 -25 -40 -67 -55 -95 -113 -208 -135 -235 -187 -235 -21 0
-41 7 -50 18 -21 23 -87 134 -190 317 -47 83 -98 173 -115 200 -39 64 -102
175 -141 245 -61 113 -110 197 -148 257 -21 34 -59 97 -83 140 -24 43 -60 107
-81 143 -77 135 -200 350 -283 495 -47 83 -115 202 -152 265 -37 63 -92 160
-122 215 -29 55 -64 111 -77 125 -25 27 -75 112 -116 195 -13 28 -46 88 -74
135 -54 90 -75 153 -68 200 2 16 23 61 46 99 67 115 337 582 364 631 13 25 46
81 72 125 106 180 225 384 263 450 63 110 66 114 93 132 15 9 45 20 68 24 68
11 3281 10 3310 -1z m2733 -11 c42 -13 86 -65 146 -171 56 -98 52 -92 167
-286 49 -84 90 -154 90 -156 0 -2 18 -34 40 -70 22 -36 40 -68 40 -72 0 -3 8
-18 19 -32 10 -15 42 -72 71 -127 29 -55 69 -125 90 -155 39 -58 150 -248 184
-314 11 -22 22 -62 24 -90 5 -64 -4 -83 -318 -631 -212 -370 -311 -544 -364
-639 -76 -136 -119 -182 -178 -191 -24 -3 -775 -5 -1670 -3 l-1627 3 -22 22
c-31 31 -21 67 61 212 39 68 70 126 70 127 0 2 18 33 40 69 22 36 40 68 40 71
0 3 8 18 18 32 11 15 37 61 59 102 21 41 61 110 87 153 26 43 57 100 68 125
12 26 41 81 66 122 25 41 63 109 85 150 22 41 48 87 58 102 11 14 19 29 19 32
0 3 28 52 62 108 34 57 78 132 98 168 20 36 75 130 122 210 47 80 173 298 280
485 329 572 335 581 376 618 53 48 44 48 882 42 488 -4 797 -10 817 -16z
m-3397 -3834 c42 -25 78 -78 197 -290 126 -225 352 -617 439 -763 41 -68 74
-125 74 -127 0 -3 18 -34 40 -70 22 -36 40 -67 40 -70 0 -2 14 -28 31 -57 18
-29 48 -82 67 -118 19 -36 67 -119 107 -185 39 -66 126 -217 192 -335 66 -118
147 -262 181 -319 64 -110 88 -181 78 -234 -6 -30 -122 -245 -167 -308 -48
-68 4 -64 -904 -64 l-820 0 -46 27 c-25 15 -57 42 -71 60 -34 45 -213 351
-462 788 -45 80 -120 210 -166 290 -130 223 -147 279 -116 367 8 22 77 150
154 284 76 134 150 264 164 289 14 25 53 92 86 148 34 57 62 106 62 108 0 2
18 33 40 69 22 36 40 67 40 70 0 5 41 76 143 250 126 213 131 216 397 212 165
-2 189 -4 220 -22z m2855 11 c46 -20 55 -54 26 -113 -12 -24 -64 -119 -116
-210 -52 -91 -95 -166 -95 -168 0 -2 -23 -43 -51 -92 -29 -48 -82 -140 -119
-203 -37 -63 -114 -196 -172 -295 -58 -99 -142 -245 -188 -324 -102 -177 -130
-211 -174 -211 -38 0 -49 10 -107 105 -49 81 -219 375 -219 380 0 2 -31 56
-70 121 -38 64 -70 118 -70 121 0 2 -11 20 -23 41 -13 20 -35 57 -49 82 -14
25 -85 148 -157 274 -72 125 -131 230 -131 233 0 2 -13 23 -29 46 -62 91 -85
161 -63 193 22 33 45 33 910 34 727 0 868 -2 897 -14z"/>
</g>
</svg>
